<?xml version="1.0" standalone="no"?>
<!DOCTYPE svg PUBLIC "-//W3C//DTD SVG 20010904//EN"
 "http://www.w3.org/TR/2001/REC-SVG-20010904/DTD/svg10.dtd">
<svg version="1.0" xmlns="http://www.w3.org/2000/svg"
 width="1891.000000pt" height="1114.000000pt" viewBox="0 0 1891.000000 1114.000000"
 preserveAspectRatio="xMidYMid meet">

<g transform="translate(0.000000,1114.000000) scale(0.100000,-0.100000)"
fill="#000000" stroke="none">
<path d="M6495 10349 c-305 -32 -616 -141 -871 -305 -164 -105 -4053 -2886
-4151 -2968 -230 -191 -437 -481 -552 -772 -224 -565 -174 -1217 134 -1739
120 -205 298 -409 475 -546 128 -100 4022 -2875 4120 -2937 439 -278 1006
-366 1520 -237 623 156 1127 598 1363 1195 87 218 126 409 134 655 16 467
-119 896 -397 1266 -72 96 -267 293 -355 360 -33 25 -431 310 -885 634 -454
323 -833 595 -842 604 -16 15 38 56 790 591 443 316 849 607 902 646 369 274
632 678 740 1138 138 583 -8 1217 -387 1686 -79 97 -258 270 -354 342 -395
295 -904 437 -1384 387z"/>
<path d="M12055 10353 c-94 -8 -249 -36 -351 -62 -717 -188 -1274 -775 -1430
-1505 -101 -473 -16 -992 231 -1411 114 -194 287 -397 450 -527 39 -31 453
-329 920 -662 468 -334 851 -610 852 -614 1 -4 -383 -281 -854 -617 -470 -335
-898 -646 -950 -689 -173 -144 -346 -361 -461 -576 -97 -182 -170 -400 -209
-625 -23 -139 -23 -462 0 -600 65 -379 211 -696 450 -981 457 -545 1199 -802
1901 -659 224 45 458 137 641 251 76 48 4007 2849 4127 2941 336 258 595 669
698 1107 64 271 66 589 5 876 -56 265 -184 544 -355 771 -72 96 -266 293 -355
360 -220 167 -4090 2918 -4170 2964 -341 197 -758 291 -1140 258z"/>
</g>
</svg>
