<svg width="96" height="20" viewBox="0 0 96 20" fill="none" xmlns="http://www.w3.org/2000/svg">
<path d="M88.0425 1.69438L87.948 1.74166C86.668 2.30984 86.0753 3.79984 86.6207 5.07711L86.668 5.17166C86.9413 5.78569 87.4443 6.26822 88.0692 6.51582C88.694 6.76342 89.391 6.75637 90.0107 6.4962L90.1053 6.44893C91.3853 5.88075 91.978 4.39075 91.4325 3.11347L91.3853 3.01893C91.2558 2.71003 91.0659 2.43012 90.8267 2.19563C90.5875 1.96113 90.3039 1.77678 89.9926 1.6534C89.6812 1.53001 89.3483 1.47008 89.0134 1.47712C88.6785 1.48416 88.3485 1.55802 88.0425 1.69438Z" fill="#FF0099"/>
<path d="M14.2251 0.375H13.7978C8.58237 0.375 4.36328 4.585 4.36328 9.78864V10.215C4.36328 15.4186 8.58237 19.6286 13.7978 19.6286H14.2251C19.4396 19.6286 23.6596 15.4186 23.6596 10.215V9.78864C23.6596 4.585 19.4396 0.375 14.2251 0.375ZM19.3215 10.1205C19.3207 10.8046 19.1853 11.4819 18.9228 12.1137C18.6603 12.7455 18.2759 13.3193 17.7916 13.8026C17.3073 14.2858 16.7325 14.6689 16.1001 14.9299C15.4678 15.191 14.7902 15.3249 14.106 15.3241H13.8696C11.0006 15.3241 8.65419 13.0059 8.65419 10.1205V9.88409C8.65479 9.19995 8.79015 8.52262 9.05253 7.89079C9.31492 7.25897 9.69921 6.68502 10.1834 6.20172C10.6677 5.71842 11.2423 5.33524 11.8747 5.07406C12.507 4.81289 13.1846 4.67883 13.8687 4.67955H14.106C16.9742 4.67955 19.3215 6.99773 19.3215 9.88409V10.1205ZM75.6487 0.375H75.2215C70.0069 0.375 65.7869 4.585 65.7869 9.78864V10.215C65.7869 15.4186 70.0069 19.6286 75.2224 19.6286H75.6487C80.8633 19.6286 85.0833 15.4186 85.0833 10.215V9.78864C85.0833 4.585 80.8633 0.375 75.6487 0.375ZM43.0251 0.777727V19.2268H38.7342L30.5796 9.38682V19.2268H25.436V0.777727H29.7496L37.9042 10.6168V0.777727H43.0251Z" fill="#070707"/>
<path d="M44.9219 0.773438H53.6691C55.6846 0.773438 57.4855 1.15162 59.051 1.90798C60.6146 2.66526 61.8237 3.7298 62.701 5.12526C63.5546 6.52071 64.0046 8.12889 64.0046 9.99798C64.0046 11.8662 63.5773 13.4743 62.701 14.8707C61.8473 16.2662 60.6146 17.3298 59.0501 18.0871C57.4864 18.8434 55.6846 19.2225 53.6691 19.2225H44.9219V0.773438ZM53.4564 15.0589C55.0446 15.0589 56.3246 14.6098 57.2728 13.7116C58.221 12.8116 58.7182 11.5825 58.7182 9.99798C58.7182 8.41253 58.2446 7.18253 57.2728 6.28435C56.3001 5.38526 55.0446 4.93617 53.4564 4.93617H50.161V15.0589H53.4564Z" fill="#070707"/>
</svg>
