<svg width="470" height="120" viewBox="0 0 470 120" fill="none" xmlns="http://www.w3.org/2000/svg">
<g clip-path="url(#clip0_222_5899)">
<path d="M153.045 29.3677C159.732 29.3677 165.421 31.9398 170.212 36.9849C175.003 42.0301 177.398 48.1634 177.398 55.4839C177.398 62.8043 175.003 69.0366 170.212 74.0817C165.421 79.1269 159.732 81.6 153.045 81.6C146.058 81.6 140.668 79.2258 136.875 74.3785V100H124V30.7527H136.875V36.5892C140.668 31.8409 146.058 29.3677 153.045 29.3677ZM150.649 69.4323C154.642 69.4323 157.935 68.1462 160.53 65.5742C163.125 63.0022 164.523 59.6387 164.523 55.4839C164.523 51.428 163.125 48.0645 160.53 45.4925C157.935 42.9204 154.642 41.5355 150.649 41.5355C146.657 41.5355 143.363 42.9204 140.768 45.4925C138.173 48.0645 136.875 51.428 136.875 55.4839C136.875 59.6387 138.173 63.0022 140.768 65.5742C143.363 68.1462 146.657 69.4323 150.649 69.4323Z" fill="#09090B"/>
<path d="M186.478 80.2151V8H199.354V80.2151H186.478Z" fill="#09090B"/>
<path d="M244.076 30.7527H256.951V80.2151H244.076V74.6753C240.882 79.3247 235.991 81.6 229.204 81.6C223.714 81.6 219.223 79.8194 215.63 76.1591C212.037 72.5978 210.34 67.5527 210.34 61.1226V30.7527H223.215V59.5398C223.215 62.9032 224.114 65.3763 225.91 67.157C227.707 68.9376 230.102 69.729 233.097 69.729C236.39 69.729 239.085 68.7398 241.081 66.6624C243.077 64.6839 244.076 61.6172 244.076 57.4624V30.7527Z" fill="#09090B"/>
<path d="M280.231 44.8C280.231 46.1849 281.029 47.2731 282.826 48.0645C284.622 48.8559 286.718 49.6473 289.313 50.2409C291.809 50.8344 294.304 51.6258 296.899 52.6151C299.394 53.6043 301.49 55.1871 303.287 57.3634C305.083 59.6387 305.982 62.4086 305.982 65.772C305.982 70.9161 303.986 74.7742 300.193 77.5441C296.4 80.314 291.609 81.6 285.92 81.6C275.64 81.6 268.653 77.7419 264.96 69.828L276.139 63.5957C277.536 67.9484 280.83 70.0258 285.92 70.0258C290.511 70.0258 292.807 68.6409 292.807 65.772C292.807 64.486 291.909 63.3979 290.112 62.6065C288.315 61.8151 286.219 61.0237 283.724 60.3312C281.129 59.7376 278.634 58.8473 276.139 57.8581C273.544 56.8688 271.448 55.3849 269.651 53.2086C267.854 51.0323 267.056 48.3613 267.056 45.0968C267.056 40.2495 268.853 36.3914 272.446 33.6215C276.039 30.8516 280.63 29.3677 286.02 29.3677C290.012 29.3677 293.705 30.357 297.099 32.1376C300.392 33.9183 302.987 36.4903 304.984 39.8538L294.005 45.7892C292.408 42.4258 289.713 40.7441 286.02 40.7441C284.323 40.7441 282.926 41.1398 281.828 41.8323C280.73 42.6237 280.231 43.6129 280.231 44.8Z" fill="#09090B"/>
<path d="M321.163 81.5011C318.767 81.5011 316.771 80.7097 315.174 79.028C313.478 77.4452 312.679 75.4667 312.679 73.0925C312.679 70.8172 313.478 68.8387 315.174 67.157C316.771 65.5742 318.767 64.6839 321.163 64.6839C323.459 64.6839 325.455 65.5742 327.151 67.157C328.748 68.8387 329.647 70.8172 329.647 73.0925C329.647 75.4667 328.748 77.4452 327.151 79.028C325.455 80.7097 323.459 81.5011 321.163 81.5011Z" fill="#09090B"/>
<path d="M394.98 29.4667C400.569 29.4667 405.061 31.3462 408.554 34.9075C411.948 38.4688 413.744 43.3161 413.744 49.4495V80.2151H405.061V49.7462C405.061 45.9871 404.063 43.0194 402.066 40.843C400.07 38.7656 397.375 37.6774 394.082 37.6774C390.289 37.6774 387.295 38.9634 385.099 41.4366C382.903 43.9097 381.805 47.6688 381.805 52.714V80.2151H373.122V49.7462C373.122 45.9871 372.123 43.0194 370.227 40.843C368.331 38.7656 365.736 37.6774 362.542 37.6774C358.849 37.6774 355.755 38.9634 353.359 41.4366C350.964 44.0086 349.766 47.7677 349.766 52.714V80.2151H341.083V30.7527H349.766V37.3806C353.16 32.1376 358.05 29.4667 364.638 29.4667C371.325 29.4667 376.216 32.3355 379.31 37.8753C382.703 32.3355 387.993 29.4667 394.98 29.4667Z" fill="#09090B"/>
<path d="M450.637 29.4667C456.426 29.4667 461.117 31.3462 464.71 35.0065C468.203 38.6667 470 43.6129 470 49.8452V80.2151H461.317V50.3398C461.317 46.3828 460.219 43.2172 458.023 41.0409C455.827 38.8645 452.733 37.6774 448.94 37.6774C444.549 37.6774 441.055 39.0624 438.46 41.7333C435.765 44.4043 434.468 48.4602 434.468 54V80.2151H425.784V30.7527H434.468V37.8753C437.961 32.3355 443.351 29.4667 450.637 29.4667Z" fill="#09090B"/>
<path d="M100 50.5085C100 78.4036 77.6142 101.017 50 101.017C43.9205 101.017 38.0944 99.9209 32.7048 97.9137C31.0353 97.292 30.3977 95.292 31.2874 93.7353L41.5609 75.7601C48.2447 64.0656 62.7895 59.8141 74.5602 65.8843C75.2047 66.2167 76.0049 66.0032 76.3667 65.3701C76.6966 64.7929 76.5476 64.0596 76.0366 63.6379C65.1749 54.6742 61.124 39.6362 65.9627 26.3609C66.2519 25.5672 65.9558 24.6669 65.2308 24.2441C64.5057 23.8212 63.5858 24.0123 63.05 24.6622C54.1083 35.5087 39.237 39.4903 26.1427 34.521C25.4749 34.2675 24.715 34.5229 24.3583 35.147C23.9671 35.8314 24.2025 36.7037 24.8572 37.1364C35.8212 44.3833 39.4303 59.073 32.9002 70.7086C32.9 70.7087 32.9001 70.709 32.9003 70.7091C32.9005 70.7092 32.9005 70.7094 32.9004 70.7096L5.59808 118.48C4.06342 121.165 0 120.065 0 116.964V50.5085C0 22.6134 22.3858 0 50 0C77.6142 0 100 22.6134 100 50.5085Z" fill="#09090B"/>
</g>
<defs>
<clipPath id="clip0_222_5899">
<rect width="470" height="120" fill="white"/>
</clipPath>
</defs>
</svg>
